<svg width="320" height="164" viewBox="0 0 320 164" fill="none" xmlns="http://www.w3.org/2000/svg">
<path d="M57.0708 129.431C59.7279 129.734 62.1592 130.296 64.3883 131.042L64.3863 131.038C64.419 131.05 64.4507 131.06 64.4829 131.071C64.5709 131.101 64.6579 131.132 64.7449 131.162C78.0255 135.901 84.1244 135.012 89.3461 133.408C103.448 129.077 111.808 110.432 134.647 114.042C144.334 115.573 152.127 117.653 158.202 121.888C158.2 121.884 158.193 121.87 158.193 121.87C158.236 121.905 158.278 121.935 158.32 121.971C159.192 122.582 160.041 123.204 160.844 123.844C172.723 131.597 184.556 121.49 187.953 119.201C188.203 119.02 188.463 117.582 188.716 117.403C188.852 117.302 188.927 117.243 188.927 117.243L188.928 117.255C203.812 106.764 227.486 96.1384 250.308 98.7472C289.52 103.23 305.301 147.702 305.301 147.702H177.511H167.082H85.841H67.9156H12.2803C16.8577 137.186 35.1659 126.927 57.0708 129.431Z" fill="#E8F1FE"/>
<path d="M320 146.744H0" stroke="#C4C4C4" stroke-width="2" stroke-miterlimit="10"/>
<path d="M211.842 31.2852V146.244H97.9092V31.2852H211.842Z" fill="white" stroke="#222222"/>
<path d="M103.934 7.68359H205.818C209.146 7.68319 211.842 10.3771 211.842 13.6992V31.3125H97.9092V13.6992C97.9092 10.3776 100.606 7.68359 103.934 7.68359Z" fill="#E8F1FE" stroke="#222222"/>
<path d="M194.6 23.61C197.591 23.61 200.015 21.1855 200.015 18.1947C200.015 15.2038 197.591 12.7793 194.6 12.7793C191.609 12.7793 189.185 15.2038 189.185 18.1947C189.185 21.1855 191.609 23.61 194.6 23.61Z" fill="#222222"/>
<path d="M194.6 20.2285C196.314 20.2285 197.704 18.8388 197.704 17.1247V3.10375C197.704 1.38967 196.314 0 194.6 0C192.886 0 191.496 1.38967 191.496 3.10375V17.1247C191.496 18.8388 192.886 20.2285 194.6 20.2285Z" fill="#A6A6A6"/>
<path d="M156.376 23.61C159.367 23.61 161.792 21.1855 161.792 18.1947C161.792 15.2038 159.367 12.7793 156.376 12.7793C153.385 12.7793 150.961 15.2038 150.961 18.1947C150.961 21.1855 153.385 23.61 156.376 23.61Z" fill="#222222"/>
<path d="M156.376 20.2285C158.09 20.2285 159.48 18.8388 159.48 17.1247V3.10375C159.48 1.38967 158.09 0 156.376 0C154.662 0 153.272 1.38967 153.272 3.10375V17.1247C153.272 18.8388 154.662 20.2285 156.376 20.2285Z" fill="#A6A6A6"/>
<path d="M118.152 23.61C121.143 23.61 123.567 21.1855 123.567 18.1947C123.567 15.2038 121.143 12.7793 118.152 12.7793C115.161 12.7793 112.736 15.2038 112.736 18.1947C112.736 21.1855 115.161 23.61 118.152 23.61Z" fill="#222222"/>
<path d="M118.152 20.2285C119.866 20.2285 121.255 18.8388 121.255 17.1247V3.10375C121.255 1.38967 119.866 0 118.152 0C116.438 0 115.048 1.38967 115.048 3.10375V17.1247C115.048 18.8388 116.438 20.2285 118.152 20.2285Z" fill="#A6A6A6"/>
<path d="M173.539 72.0664H195.43V50.1761H173.539V72.0664Z" stroke="#222222" stroke-miterlimit="10"/>
<path d="M144.415 72.0664H166.306V50.1761H144.415V72.0664Z" stroke="#222222" stroke-miterlimit="10"/>
<path d="M115.29 72.0664H137.181V50.1761H115.29V72.0664Z" stroke="#222222" stroke-miterlimit="10"/>
<path d="M173.539 99.8535H195.43V77.9632H173.539V99.8535Z" stroke="#222222" stroke-miterlimit="10"/>
<path d="M115.295 99.8789H137.186V77.9886H115.295V99.8789Z" stroke="#222222" stroke-miterlimit="10"/>
<path d="M145.272 98.8535V78.9629H165.163V98.8535H145.272Z" fill="#0AAD5F" fill-opacity="0.2" stroke="#0AAD5F" stroke-width="2"/>
<path d="M144.415 127.641H166.306V105.75H144.415V127.641Z" stroke="#222222" stroke-miterlimit="10"/>
<path d="M144.415 127.641H166.306V105.75H144.415V127.641Z" stroke="#222222" stroke-miterlimit="10"/>
<path d="M173.346 127.643H195.236V105.752H173.346V127.643Z" stroke="#222222" stroke-miterlimit="10"/>
<path d="M115.29 127.641H137.181V105.75H115.29V127.641Z" stroke="#222222" stroke-miterlimit="10"/>
<g clip-path="url(#clip0_92216_21509)">
<path d="M74.5769 109.741C74.558 109.734 74.5418 109.722 74.5307 109.705C74.5196 109.688 74.5142 109.668 74.5153 109.648V109.515L74.3819 109.464C73.4584 106.693 71.5291 104.579 69.6615 102.527C68.7789 101.562 67.8656 100.567 67.0755 99.52C66.0103 98.0985 65.0695 96.5879 64.2637 95.0048C65.4215 95.4089 66.6241 95.6708 67.8451 95.7847H68.0298L68.1119 95.6308C68.2043 95.4358 68.2145 95.4256 66.3982 93.2808C64.6644 91.3278 63.0503 89.2717 61.5649 87.1237C61.079 84.5016 60.859 81.8371 60.9081 79.1708C62.2155 80.0241 63.7391 80.4868 65.3002 80.5048H65.4439L65.5362 80.3611C65.6388 80.1456 65.5875 80.0225 63.4838 77.4776C62.7142 76.5335 61.924 75.5586 61.4315 74.8711L61.1441 74.44C61.3725 71.2825 61.7595 68.1384 62.3037 65.0197C62.3756 64.6708 62.4268 64.3321 62.4987 63.9935C62.6629 63.2136 62.8271 62.4337 63.022 61.6743C63.4736 59.8477 66.9113 53.7727 68.2864 53.5777C68.3682 53.5678 68.4509 53.5678 68.5326 53.5777C69.6204 53.5777 70.4516 54.6039 71.1905 55.5583L71.6112 56.0714C72.2577 56.8205 72.8837 57.5901 73.4994 58.3597C73.366 59.2628 72.3808 65.7996 72.6682 66.1382L72.7297 66.2203H72.9555L73.0376 66.1177C74.1664 64.6533 75.082 63.0364 75.757 61.3151C75.7785 61.351 75.8025 61.3853 75.8288 61.4177C78.2609 64.7939 80.9598 68.7447 82.5401 72.9008C83.2346 74.807 83.6124 76.8141 83.6586 78.8424C83.1045 79.6839 77.1526 88.7964 77.3784 89.2171L77.4502 89.33H77.6452H77.7068C79.7914 88.1634 81.6988 86.7052 83.3713 84.9995L83.3097 85.5742C82.4067 93.5374 81.2574 103.43 74.659 109.731L74.5769 109.741Z" fill="white"/>
<path d="M71.2519 77.1379C68.0092 76.6556 65.5258 74.6033 63.1451 72.4893C62.7859 72.1712 63.2272 71.576 63.5863 71.8941C65.8234 73.8747 68.1529 75.8552 71.1801 76.3683C70.4823 71.535 69.6819 66.7222 68.7378 61.9196C68.6454 61.4579 69.374 61.3449 69.4664 61.8067C70.732 68.1554 71.7582 74.5452 72.5449 80.9759C74.4115 78.3325 75.8616 75.4184 76.8446 72.3354C76.9883 71.8839 77.6759 72.161 77.5322 72.6125C76.483 75.8757 74.9282 78.9541 72.9246 81.7353C72.8956 81.7795 72.856 81.8158 72.8094 81.8409C72.7628 81.866 72.7107 81.879 72.6578 81.8789C72.822 83.2848 72.9862 84.6907 73.1299 86.0966C74.4862 84.419 75.5637 82.5341 76.3213 80.5141C76.4855 80.0729 77.173 80.3499 77.0088 80.7912C76.1729 83.0406 74.9466 85.1249 73.3864 86.9483C73.3459 86.9987 73.2928 87.0377 73.2325 87.0612C73.7045 91.6893 74.0739 96.2969 74.31 100.976C74.3393 101.023 74.3569 101.075 74.3613 101.13C74.4536 102.834 74.5152 104.537 74.5357 106.261C74.5768 107.369 74.6076 108.478 74.6281 109.586C74.6327 109.635 74.6248 109.684 74.6051 109.729C74.5853 109.774 74.5544 109.813 74.5152 109.842C74.2082 120.306 72.8885 130.716 70.5747 140.926L69.846 140.751C72.5055 129.216 73.8243 117.412 73.7764 105.574C73.7353 104.322 73.684 103.07 73.6224 101.818C73.5692 101.842 73.5115 101.854 73.4531 101.854C73.3947 101.854 73.337 101.842 73.2838 101.818C71.9341 100.892 70.7799 99.7104 69.8871 98.339C69.6306 97.9387 70.2052 97.4667 70.472 97.8772C71.2837 99.1375 72.3286 100.231 73.5506 101.099C73.1401 93.0952 72.3739 85.1217 71.2519 77.179V77.1379Z" fill="black"/>
<path d="M97.0605 98.6673C98.4586 99.1945 99.9757 99.3224 101.442 99.0367C100.673 101.208 99.6392 103.276 98.3638 105.194C95.9728 106.805 90.1543 109.196 90.4211 109.299C91.6315 109.648 92.8779 109.858 94.1359 109.925C92.8665 110.987 91.4909 111.915 90.0312 112.695C86.9526 114.347 83.2891 115.158 81.0007 117.713C80.9806 117.74 80.9542 117.762 80.9237 117.776C80.8933 117.79 80.8599 117.797 80.8263 117.795C80.8015 117.836 80.7668 117.869 80.7255 117.892C80.6841 117.915 80.6376 117.927 80.5902 117.927C80.5429 117.927 80.4964 117.915 80.455 117.892C80.4137 117.869 80.379 117.836 80.3542 117.795C76.5779 110.94 78.3019 103.429 80.0053 96.6765C80.0874 96.3584 80.1593 96.0403 80.2516 95.7222C81.2394 97.7432 82.511 99.6127 84.028 101.274C84.2435 101.51 82.54 94.7062 81.637 91.5353C82.2911 89.9857 83.2154 88.5646 84.3666 87.3382C87.0871 84.7829 90.1465 82.6144 93.4586 80.8938C93.5818 80.8117 93.7254 80.7501 93.8588 80.668C93.9066 82.3038 94.2149 83.9216 94.7721 85.4603C95.4172 83.4748 95.9146 81.4442 96.2601 79.3853C97.04 78.9953 97.8199 78.6054 98.6101 78.2462C99.6362 77.7639 101.083 76.7993 102.356 77.4971C103.628 78.1949 104.736 84.0031 104.593 85.5014C104.531 86.1376 104.449 86.7841 104.357 87.4203C104.357 87.6974 104.275 87.9745 104.223 88.2515C103.778 90.798 103.186 93.3164 102.448 95.794C102.31 95.8911 102.166 95.9802 102.017 96.0608C100.457 96.9228 96.7629 98.5647 97.0605 98.6673Z" fill="#B8BAC2"/>
<path d="M74.9355 142.465C75.9213 134.073 77.8242 125.814 80.6104 117.837C80.5924 117.802 80.5829 117.763 80.5829 117.724C80.5829 117.685 80.5924 117.646 80.6104 117.611C80.9524 116.79 81.2945 115.969 81.6365 115.148C82.1496 113.876 82.6627 112.624 83.2682 111.372C83.2869 111.332 83.3151 111.296 83.3502 111.269C84.9101 107.849 86.5656 104.483 88.317 101.172C88.2741 101.135 88.2393 101.089 88.2144 101.038C87.4304 99.1876 86.9955 97.208 86.9317 95.1992C86.9317 94.799 87.5884 94.8195 87.5987 95.1992C87.6562 96.9935 88.0242 98.7642 88.6864 100.433C89.22 99.4065 89.7639 98.3804 90.3181 97.426C90.2741 97.4103 90.2346 97.3844 90.2025 97.3505C90.1704 97.3167 90.1467 97.2757 90.1334 97.231C89.2473 94.5439 88.8172 91.7275 88.8609 88.8984C88.8609 88.5085 89.5382 88.529 89.5279 88.8984C89.4787 91.5773 89.8669 94.2462 90.6772 96.8C93.2222 92.2438 95.9587 87.797 98.8867 83.4596C99.1022 83.1415 99.6974 83.4596 99.4819 83.788C97.2859 87.0821 95.2027 90.4377 93.2016 93.8446C95.9313 94.4501 98.4865 93.7214 100.96 92.9723C101.035 92.9581 101.112 92.9714 101.178 93.0098C101.245 93.0481 101.295 93.109 101.32 93.1812C101.344 93.2535 101.343 93.3322 101.314 93.4032C101.286 93.4741 101.233 93.5325 101.165 93.5675C98.5173 94.368 95.8184 95.0966 92.9554 94.3987C89.7126 99.9949 86.7469 105.735 84.0583 111.618C85.3301 111.38 86.5452 110.903 87.6397 110.212C87.9783 109.997 88.3375 110.53 87.9989 110.746C86.8117 111.5 85.4859 112.009 84.0994 112.244C84.0492 112.255 83.9972 112.254 83.9474 112.241C83.8977 112.229 83.8514 112.205 83.812 112.172C83.3913 113.086 82.9808 114.009 82.5806 114.933C79.0975 123.832 76.7829 133.145 75.6949 142.64L74.9355 142.465Z" fill="black"/>
<path d="M98.5987 89.658C100.65 89.2675 102.612 88.5022 104.386 87.4004C104.386 87.6775 104.304 87.9545 104.253 88.2316C102.558 89.2028 100.718 89.8958 98.804 90.284C98.3935 90.325 98.1883 89.7401 98.5987 89.658Z" fill="black"/>
<path d="M35.8379 95.23C35.8379 97.9084 42.0668 99.2116 44.0474 99.93C48.3984 101.541 52.6468 103.173 55.8588 106.672C59.5723 110.942 63.0264 115.431 66.2027 120.115C66.2857 120.238 66.4024 120.335 66.539 120.393C66.6756 120.451 66.8261 120.469 66.9724 120.443C67.3327 119.819 67.635 119.163 67.8754 118.483C69.0042 115.713 70.7282 110.623 70.2972 107.719C69.9851 105.692 69.3181 103.736 68.3269 101.941C68.1396 102.852 67.7107 103.696 67.0852 104.384C66.7504 102.602 66.5106 100.803 66.3669 98.9962C66.0898 98.6473 65.7922 98.3086 65.4844 97.97C64.7817 97.2029 64.0163 96.4958 63.196 95.856L62.6726 95.4558C62.0132 94.9585 61.3281 94.4961 60.6203 94.0704L60.0353 93.7318C59.3686 93.356 58.6837 93.0135 57.983 92.7056C57.7873 94.0272 57.4002 95.3131 56.8336 96.523C56.5467 95.052 56.3956 93.5578 56.3821 92.0591C55.7048 91.8026 55.0173 91.5973 54.3297 91.3921C54.1399 92.2473 53.8506 93.0773 53.4678 93.8652C52.8951 92.9235 52.4434 91.9132 52.1234 90.8585C49.9434 90.4146 47.7167 90.2423 45.4943 90.3454C45.2993 90.3454 45.1146 90.3454 44.9299 90.3454C44.3347 90.3454 43.7498 90.4582 43.1648 90.5403C41.0304 90.879 35.9816 92.2233 35.9097 95.1069L35.8379 95.23Z" fill="#B8BAC2"/>
<path d="M59.6556 102.238C64.92 107.431 66.5516 116.964 66.8903 119.683C67.4238 120.796 67.787 121.983 67.9678 123.203C68.445 127.558 68.5583 131.945 68.3064 136.318C68.3064 137.734 68.2038 139.15 68.1319 140.566L67.4034 140.433C67.4034 139.54 67.4957 138.647 67.5265 137.744C67.6496 133.886 67.6496 130.017 67.4752 126.159C67.481 124.164 67.1336 122.183 66.449 120.309C66.3594 120.254 66.2825 120.181 66.2232 120.094C63.0469 115.41 59.5928 110.921 55.8793 106.651C52.6673 103.152 48.4189 101.52 44.0679 99.9089C42.0976 99.1905 35.9097 97.8565 35.8584 95.209C44.0884 96.1941 53.6011 96.2967 59.6556 102.238Z" fill="black"/>
<path d="M59.881 99.7249C60.2722 97.753 60.3104 95.7274 59.9939 93.7422L60.5788 94.0808C60.8422 95.9957 60.7868 97.941 60.4146 99.8377C60.3901 99.8979 60.3453 99.9477 60.2879 99.9782C60.2305 100.009 60.1642 100.018 60.1006 100.005C60.037 99.9911 59.9802 99.9557 59.94 99.9046C59.8999 99.8534 59.879 99.7898 59.881 99.7249Z" fill="black"/>
<path d="M61.8722 100.793C62.3425 99.0549 62.6009 97.2666 62.6419 95.4668L63.1652 95.867C63.1023 97.5731 62.8476 99.2667 62.4058 100.916C62.334 101.213 61.8106 101.131 61.8722 100.793Z" fill="black"/>
<path d="M89.8965 129.512C90.2684 130.465 90.5627 131.448 90.7734 132.45L90.7744 132.455C91.0349 133.633 91.1829 134.833 91.2168 136.038L91.2246 136.555C91.2272 137.881 91.0862 139.205 90.8047 140.502V140.503C89.8415 144.992 87.2684 148.971 83.5752 151.693H61.2471C57.5515 148.973 54.9757 144.994 54.0088 140.505C53.7355 139.207 53.598 137.884 53.5986 136.558C53.6082 135.178 53.7721 133.804 54.0879 132.461L54.0908 132.45C54.3015 131.448 54.5949 130.465 54.9668 129.512H89.8965Z" fill="white" stroke="black"/>
<path d="M53.0986 136.554C53.0977 137.916 53.2387 139.275 53.5193 140.608C54.523 145.271 57.2171 149.398 61.0824 152.193H83.7405C54.1351 153.661 54.6276 129.012 54.6276 129.012C54.1848 130.09 53.8413 131.206 53.6015 132.347C53.2771 133.726 53.1085 135.137 53.0986 136.554Z" fill="black"/>
</g>
<path fill-rule="evenodd" clip-rule="evenodd" d="M212.132 80.3713C214.377 79.9361 216.761 79.9361 219.007 80.3713C219.881 80.5409 220.469 81.336 220.469 82.2268V85.3264C220.469 86.1894 219.921 86.922 219.155 87.2024V90.387C219.155 91.4914 218.26 92.3868 217.155 92.387H213.972C212.867 92.3869 211.972 91.4915 211.972 90.387V87.1985C211.212 86.915 210.67 86.185 210.67 85.3264V82.2268C210.67 81.336 211.257 80.5409 212.132 80.3713Z" fill="#222222"/>
<path d="M212.132 80.3713L212.037 79.8805L212.037 79.8805L212.132 80.3713ZM219.007 80.3713L219.102 79.8805L219.102 79.8805L219.007 80.3713ZM219.155 87.2024L218.983 86.7329L218.655 86.853V87.2024H219.155ZM217.155 92.387V92.887H217.155L217.155 92.387ZM213.972 92.387L213.972 92.887H213.972V92.387ZM211.972 87.1985H212.472V86.8514L212.146 86.73L211.972 87.1985ZM212.132 80.3713L212.227 80.8622C214.41 80.4392 216.729 80.4392 218.912 80.8622L219.007 80.3713L219.102 79.8805C216.794 79.4331 214.345 79.4331 212.037 79.8805L212.132 80.3713ZM219.007 80.3713L218.912 80.8622C219.525 80.9811 219.969 81.5477 219.969 82.2268H220.469H220.969C220.969 81.1243 220.238 80.1006 219.102 79.8805L219.007 80.3713ZM220.469 82.2268H219.969V85.3264H220.469H220.969V82.2268H220.469ZM220.469 85.3264H219.969C219.969 85.9717 219.56 86.5219 218.983 86.7329L219.155 87.2024L219.327 87.6719C220.283 87.3222 220.969 86.4071 220.969 85.3264H220.469ZM219.155 87.2024H218.655V90.387H219.155H219.655V87.2024H219.155ZM219.155 90.387H218.655C218.655 91.2152 217.984 91.8868 217.155 91.887L217.155 92.387L217.155 92.887C218.536 92.8868 219.655 91.7676 219.655 90.387H219.155ZM217.155 92.387V91.887H213.972V92.387V92.887H217.155V92.387ZM213.972 92.387L213.972 91.887C213.143 91.887 212.472 91.2154 212.472 90.387H211.972H211.472C211.472 91.7677 212.591 92.8869 213.972 92.887L213.972 92.387ZM211.972 90.387H212.472V87.1985H211.972H211.472V90.387H211.972ZM211.972 87.1985L212.146 86.73C211.575 86.5167 211.17 85.9685 211.17 85.3264H210.67H210.17C210.17 86.4015 210.849 87.3132 211.797 87.6669L211.972 87.1985ZM210.67 85.3264H211.17V82.2268H210.67H210.17V85.3264H210.67ZM210.67 82.2268H211.17C211.17 81.5477 211.614 80.9811 212.227 80.8622L212.132 80.3713L212.037 79.8805C210.901 80.1007 210.17 81.1243 210.17 82.2268H210.67Z" fill="#222222"/>
<path d="M211.972 81.6543C212.251 81.7297 212.532 81.789 212.816 81.8339C213.099 81.883 213.384 81.9226 213.67 81.9475C214.241 82.0008 214.814 82.0251 215.387 82.0188C215.673 82.0077 215.96 82.0083 216.246 81.9819L216.675 81.9523C216.818 81.9356 216.96 81.9213 217.103 81.908C217.675 81.8498 218.242 81.749 218.812 81.6545C218.535 81.7362 218.257 81.8146 217.976 81.8846C217.692 81.9393 217.41 82.0109 217.122 82.0494C216.551 82.1502 215.97 82.1856 215.389 82.2041C214.809 82.206 214.227 82.1763 213.652 82.0885C213.079 82.0003 212.507 81.8765 211.972 81.6543Z" fill="#D3D3D3" stroke="#D3D3D3" stroke-width="0.5"/>
<path d="M212.998 87.3379C213.207 87.3907 213.419 87.4322 213.632 87.4636C213.844 87.498 214.057 87.5257 214.272 87.5431C214.7 87.5805 215.13 87.5975 215.56 87.593C215.774 87.5853 215.99 87.5857 216.204 87.5672L216.526 87.5465C216.633 87.5348 216.74 87.5248 216.847 87.5155C217.276 87.4747 217.701 87.4042 218.129 87.338C217.921 87.3952 217.712 87.4501 217.501 87.4991C217.288 87.5374 217.077 87.5875 216.861 87.6145C216.433 87.685 215.997 87.7098 215.561 87.7228C215.126 87.7241 214.689 87.7033 214.259 87.6418C213.829 87.5801 213.4 87.4934 212.998 87.3379Z" fill="#D3D3D3" stroke="#D3D3D3" stroke-width="0.5"/>
<path d="M217 164C236.33 164 252 161.761 252 159C252 156.239 236.33 154 217 154C197.67 154 182 156.239 182 159C182 161.761 197.67 164 217 164Z" fill="#E1E1E1"/>
<path d="M216.137 151.714C232.435 151.714 245.647 138.502 245.647 122.205C245.647 105.907 232.435 92.6953 216.137 92.6953C199.84 92.6953 186.628 105.907 186.628 122.205C186.628 138.502 199.84 151.714 216.137 151.714Z" fill="white"/>
<path d="M216.137 94.1787C216.474 94.1787 216.74 94.3956 216.855 94.6904L216.896 94.8213L216.896 94.8262C216.955 95.0974 216.982 95.3679 216.982 95.6357C216.983 95.9049 216.956 96.176 216.897 96.4473L216.896 96.4531C216.815 96.8127 216.523 97.0957 216.137 97.0957C215.751 97.0956 215.459 96.812 215.378 96.4521L215.377 96.4473C215.319 96.176 215.291 95.9049 215.292 95.6357C215.293 95.3679 215.319 95.0974 215.378 94.8262L215.379 94.8203C215.461 94.4618 215.751 94.179 216.137 94.1787Z" fill="#E2E2E2" stroke="#E2E2E2"/>
<path d="M202.126 97.9355C202.418 97.7669 202.756 97.8223 203.003 98.0195L203.104 98.1123L203.107 98.1162C203.294 98.3218 203.452 98.5425 203.587 98.7744H203.586C203.687 98.9492 203.776 99.1322 203.85 99.3242L203.919 99.5195L203.921 99.5254C204.03 99.8776 203.919 100.269 203.585 100.462C203.25 100.655 202.856 100.555 202.605 100.284L202.602 100.279C202.416 100.074 202.257 99.8536 202.123 99.6201C201.989 99.3877 201.877 99.1402 201.792 98.876L201.791 98.8701C201.682 98.5186 201.792 98.1284 202.126 97.9355Z" fill="#E2E2E2" stroke="#E2E2E2"/>
<path d="M192.671 107.825L192.805 107.855L192.811 107.857C193.074 107.942 193.322 108.055 193.555 108.188L193.554 108.189C193.787 108.324 194.008 108.481 194.214 108.667L194.218 108.671C194.489 108.922 194.588 109.315 194.396 109.649C194.202 109.984 193.812 110.095 193.459 109.985L193.454 109.983C193.256 109.92 193.067 109.841 192.887 109.748L192.709 109.651C192.477 109.517 192.256 109.358 192.051 109.172L192.048 109.169C191.777 108.919 191.677 108.526 191.87 108.191C192.039 107.9 192.358 107.778 192.671 107.825Z" fill="#E2E2E2" stroke="#E2E2E2"/>
<path d="M189.572 121.357C189.841 121.357 190.112 121.384 190.384 121.442L190.39 121.443C190.749 121.525 191.032 121.816 191.032 122.202C191.032 122.589 190.749 122.88 190.389 122.962L190.384 122.963C190.181 123.007 189.977 123.033 189.774 123.043L189.572 123.048C189.304 123.047 189.034 123.02 188.763 122.962L188.757 122.961C188.398 122.879 188.115 122.588 188.115 122.202C188.115 121.816 188.399 121.526 188.758 121.444L188.763 121.443C189.034 121.385 189.304 121.358 189.572 121.357Z" fill="#E2E2E2" stroke="#E2E2E2"/>
<path d="M193.593 134.39C193.906 134.342 194.227 134.463 194.396 134.756C194.589 135.09 194.489 135.484 194.218 135.734L194.214 135.738C194.008 135.924 193.788 136.084 193.554 136.218L193.553 136.217C193.321 136.35 193.074 136.463 192.811 136.548L192.806 136.549C192.454 136.658 192.063 136.549 191.87 136.215C191.677 135.881 191.777 135.486 192.047 135.236L192.051 135.233C192.256 135.047 192.477 134.888 192.709 134.754L192.887 134.657C193.067 134.565 193.256 134.486 193.454 134.422L193.459 134.42L193.593 134.39Z" fill="#E2E2E2" stroke="#E2E2E2"/>
<path d="M202.605 144.122C202.856 143.851 203.25 143.752 203.584 143.944C203.918 144.137 204.029 144.528 203.92 144.881L203.919 144.886C203.834 145.149 203.721 145.397 203.586 145.63L203.587 145.631C203.452 145.863 203.293 146.084 203.106 146.29L203.104 146.293C202.854 146.563 202.46 146.664 202.126 146.471C201.792 146.278 201.682 145.887 201.79 145.536L201.792 145.53C201.877 145.266 201.99 145.019 202.123 144.786C202.257 144.553 202.415 144.332 202.602 144.126L202.605 144.122Z" fill="#E2E2E2" stroke="#E2E2E2"/>
<path d="M216.137 147.307C216.475 147.307 216.74 147.524 216.855 147.819L216.896 147.95L216.897 147.955C216.956 148.226 216.982 148.496 216.981 148.766L216.982 148.767C216.982 149.034 216.955 149.305 216.896 149.576L216.896 149.582C216.814 149.941 216.522 150.224 216.137 150.224C215.751 150.223 215.46 149.941 215.379 149.582L215.378 149.576C215.319 149.305 215.293 149.034 215.292 148.767C215.291 148.497 215.318 148.226 215.377 147.955L215.378 147.95C215.459 147.59 215.751 147.307 216.137 147.307Z" fill="#E2E2E2" stroke="#E2E2E2"/>
<path d="M228.689 143.944C228.982 143.775 229.321 143.83 229.568 144.028L229.668 144.122L229.672 144.126C229.858 144.332 230.017 144.552 230.151 144.786H230.15C230.251 144.96 230.34 145.143 230.413 145.335L230.481 145.53L230.483 145.535C230.592 145.887 230.482 146.278 230.147 146.471C229.813 146.663 229.42 146.564 229.17 146.294L229.166 146.289C228.98 146.084 228.822 145.864 228.688 145.632C228.552 145.399 228.439 145.15 228.354 144.886L228.354 144.881C228.244 144.528 228.355 144.137 228.689 143.944Z" fill="#E2E2E2" stroke="#E2E2E2"/>
<path d="M238.683 134.39L238.815 134.42L238.82 134.422C239.084 134.507 239.332 134.619 239.565 134.754L239.737 134.859C239.85 134.933 239.96 135.012 240.066 135.099L240.224 135.233L240.228 135.236C240.498 135.486 240.597 135.88 240.404 136.214C240.211 136.548 239.821 136.658 239.47 136.55L239.464 136.548C239.2 136.463 238.953 136.351 238.721 136.218C238.487 136.084 238.266 135.924 238.061 135.738L238.057 135.734C237.786 135.484 237.686 135.09 237.879 134.756C238.048 134.463 238.369 134.342 238.683 134.39Z" fill="#E2E2E2" stroke="#E2E2E2"/>
<path d="M242.702 121.357C242.97 121.358 243.24 121.385 243.512 121.443L243.518 121.444C243.876 121.526 244.159 121.817 244.159 122.202C244.159 122.588 243.876 122.879 243.518 122.961L243.512 122.962C243.24 123.02 242.97 123.047 242.702 123.048C242.433 123.048 242.162 123.021 241.891 122.963L241.886 122.962C241.526 122.88 241.242 122.588 241.242 122.202C241.242 121.816 241.526 121.525 241.886 121.443L241.891 121.442C242.162 121.384 242.433 121.357 242.702 121.357Z" fill="#E2E2E2" stroke="#E2E2E2"/>
<path d="M239.469 107.856C239.82 107.747 240.211 107.857 240.404 108.191C240.597 108.525 240.498 108.919 240.228 109.169L240.224 109.173C240.018 109.359 239.797 109.518 239.565 109.652L239.564 109.651C239.331 109.787 239.084 109.899 238.821 109.984L238.815 109.986C238.463 110.096 238.072 109.985 237.879 109.65C237.686 109.316 237.786 108.921 238.057 108.671L238.061 108.668C238.266 108.482 238.487 108.323 238.721 108.188L238.897 108.093C239.077 108.001 239.266 107.922 239.464 107.858L239.469 107.856Z" fill="#E2E2E2" stroke="#E2E2E2"/>
<path d="M229.171 98.1123C229.421 97.8421 229.814 97.7426 230.148 97.9355C230.482 98.1284 230.593 98.5187 230.484 98.8701L230.482 98.876C230.397 99.1399 230.286 99.3876 230.152 99.6201C230.018 99.8538 229.859 100.075 229.673 100.28L229.669 100.284C229.418 100.555 229.025 100.654 228.69 100.462C228.356 100.269 228.245 99.878 228.354 99.5254L228.355 99.5195C228.44 99.2556 228.553 99.0077 228.688 98.7744L228.793 98.6025C228.903 98.4329 229.028 98.2706 229.168 98.1162L229.171 98.1123Z" fill="#E2E2E2" stroke="#E2E2E2"/>
<path opacity="0.23" d="M229.831 96.2052C230.452 96.5377 231.059 96.8915 231.653 97.265C232.507 96.9493 233.913 96.2696 235.373 95.3739C232.632 93.3988 229.587 91.8212 226.319 90.7266C227.588 92.7876 228.926 94.9085 229.831 96.2052Z" fill="#B8BAC2"/>
<mask id="path-51-outside-1_92216_21509" maskUnits="userSpaceOnUse" x="182.083" y="88.1504" width="69" height="71" fill="black">
<rect fill="white" x="182.083" y="88.1504" width="69" height="71"/>
<path d="M216.138 89.1504C234.393 89.1504 249.192 103.95 249.192 122.206C249.192 130.941 245.803 138.883 240.269 144.793C240.482 144.977 240.67 145.197 240.818 145.455L245.569 153.684C246.284 154.921 245.86 156.503 244.623 157.218C243.386 157.932 241.803 157.509 241.089 156.271L236.469 148.269C230.861 152.649 223.805 155.261 216.138 155.261C208.722 155.261 201.876 152.818 196.361 148.694L191.988 156.27C191.274 157.507 189.692 157.931 188.455 157.217C187.218 156.502 186.793 154.92 187.508 153.683L192.259 145.453C192.306 145.371 192.357 145.293 192.412 145.218C186.639 139.267 183.083 131.152 183.083 122.206C183.083 103.95 197.882 89.1505 216.138 89.1504ZM216.138 92.6963C199.84 92.6964 186.629 105.909 186.629 122.206C186.629 138.503 199.84 151.715 216.138 151.715C232.435 151.715 245.647 138.503 245.647 122.206C245.647 105.908 232.435 92.6963 216.138 92.6963Z"/>
</mask>
<path d="M216.138 89.1504C234.393 89.1504 249.192 103.95 249.192 122.206C249.192 130.941 245.803 138.883 240.269 144.793C240.482 144.977 240.67 145.197 240.818 145.455L245.569 153.684C246.284 154.921 245.86 156.503 244.623 157.218C243.386 157.932 241.803 157.509 241.089 156.271L236.469 148.269C230.861 152.649 223.805 155.261 216.138 155.261C208.722 155.261 201.876 152.818 196.361 148.694L191.988 156.27C191.274 157.507 189.692 157.931 188.455 157.217C187.218 156.502 186.793 154.92 187.508 153.683L192.259 145.453C192.306 145.371 192.357 145.293 192.412 145.218C186.639 139.267 183.083 131.152 183.083 122.206C183.083 103.95 197.882 89.1505 216.138 89.1504ZM216.138 92.6963C199.84 92.6964 186.629 105.909 186.629 122.206C186.629 138.503 199.84 151.715 216.138 151.715C232.435 151.715 245.647 138.503 245.647 122.206C245.647 105.908 232.435 92.6963 216.138 92.6963Z" fill="#B8BAC2"/>
<path d="M216.138 89.1504V88.1504H216.138L216.138 89.1504ZM249.192 122.206L250.192 122.206V122.206H249.192ZM240.269 144.793L239.539 144.109L238.827 144.869L239.615 145.549L240.269 144.793ZM240.818 145.455L239.952 145.955L239.952 145.955L240.818 145.455ZM245.569 153.684L246.435 153.184L246.435 153.184L245.569 153.684ZM244.623 157.218L245.123 158.084L245.123 158.084L244.623 157.218ZM241.089 156.271L240.223 156.771L240.223 156.772L241.089 156.271ZM236.469 148.269L237.335 147.769L236.76 146.772L235.853 147.481L236.469 148.269ZM216.138 155.261L216.138 156.261H216.138V155.261ZM196.361 148.694L196.96 147.893L196.058 147.219L195.495 148.194L196.361 148.694ZM191.988 156.27L192.854 156.77L192.854 156.769L191.988 156.27ZM188.455 157.217L187.955 158.083L187.955 158.083L188.455 157.217ZM187.508 153.683L188.374 154.183L188.374 154.183L187.508 153.683ZM192.259 145.453L191.393 144.953L191.393 144.953L192.259 145.453ZM192.412 145.218L193.22 145.808L193.717 145.127L193.13 144.521L192.412 145.218ZM183.083 122.206H182.083V122.206L183.083 122.206ZM216.138 92.6963V91.6963H216.138L216.138 92.6963ZM186.629 122.206H185.629V122.206L186.629 122.206ZM216.138 151.715L216.138 152.715H216.138V151.715ZM245.647 122.206L246.647 122.206V122.206H245.647ZM216.138 89.1504V90.1504C233.841 90.1504 248.192 104.503 248.192 122.206H249.192H250.192C250.192 103.398 234.946 88.1504 216.138 88.1504V89.1504ZM249.192 122.206L248.192 122.206C248.192 130.677 244.906 138.378 239.539 144.109L240.269 144.793L240.998 145.476C246.699 139.389 250.192 131.205 250.192 122.206L249.192 122.206ZM240.269 144.793L239.615 145.549C239.749 145.666 239.863 145.801 239.952 145.955L240.818 145.455L241.684 144.955C241.476 144.594 241.214 144.289 240.923 144.037L240.269 144.793ZM240.818 145.455L239.952 145.955L244.703 154.184L245.569 153.684L246.435 153.184L241.684 144.955L240.818 145.455ZM245.569 153.684L244.703 154.184C245.142 154.943 244.882 155.914 244.123 156.352L244.623 157.218L245.123 158.084C246.839 157.093 247.426 154.899 246.435 153.184L245.569 153.684ZM244.623 157.218L244.123 156.352C243.364 156.79 242.393 156.53 241.955 155.771L241.089 156.271L240.223 156.772C241.214 158.487 243.408 159.074 245.123 158.084L244.623 157.218ZM241.089 156.271L241.955 155.772L237.335 147.769L236.469 148.269L235.603 148.769L240.223 156.771L241.089 156.271ZM236.469 148.269L235.853 147.481C230.415 151.729 223.574 154.261 216.138 154.261V155.261V156.261C224.036 156.261 231.307 153.569 237.084 149.057L236.469 148.269ZM216.138 155.261L216.138 154.261C208.945 154.261 202.308 151.893 196.96 147.893L196.361 148.694L195.762 149.495C201.444 153.744 208.499 156.261 216.138 156.261L216.138 155.261ZM196.361 148.694L195.495 148.194L191.122 155.77L191.988 156.27L192.854 156.769L197.227 149.194L196.361 148.694ZM191.988 156.27L191.122 155.77C190.684 156.529 189.714 156.789 188.955 156.351L188.455 157.217L187.955 158.083C189.671 159.073 191.864 158.485 192.854 156.77L191.988 156.27ZM188.455 157.217L188.955 156.351C188.196 155.912 187.936 154.942 188.374 154.183L187.508 153.683L186.642 153.183C185.651 154.898 186.24 157.092 187.955 158.083L188.455 157.217ZM187.508 153.683L188.374 154.183L193.125 145.953L192.259 145.453L191.393 144.953L186.642 153.183L187.508 153.683ZM192.259 145.453L193.125 145.953C193.154 145.903 193.186 145.854 193.22 145.808L192.412 145.218L191.605 144.628C191.529 144.731 191.458 144.84 191.393 144.953L192.259 145.453ZM192.412 145.218L193.13 144.521C187.53 138.749 184.083 130.882 184.083 122.206L183.083 122.206L182.083 122.206C182.083 131.423 185.748 139.784 191.694 145.914L192.412 145.218ZM183.083 122.206H184.083C184.083 104.503 198.434 90.1505 216.138 90.1504L216.138 89.1504L216.138 88.1504C197.33 88.1505 182.083 103.398 182.083 122.206H183.083ZM216.138 92.6963L216.138 91.6963C199.288 91.6964 185.629 105.356 185.629 122.206H186.629H187.629C187.629 106.461 200.393 93.6964 216.138 93.6963L216.138 92.6963ZM186.629 122.206L185.629 122.206C185.629 139.056 199.288 152.715 216.138 152.715L216.138 151.715L216.138 150.715C200.393 150.715 187.629 137.951 187.629 122.206L186.629 122.206ZM216.138 151.715V152.715C232.987 152.715 246.647 139.056 246.647 122.206L245.647 122.206L244.647 122.206C244.647 137.951 231.883 150.715 216.138 150.715V151.715ZM245.647 122.206H246.647C246.647 105.356 232.988 91.6963 216.138 91.6963V92.6963V93.6963C231.883 93.6963 244.647 106.461 244.647 122.206H245.647Z" fill="#222222" mask="url(#path-51-outside-1_92216_21509)"/>
<rect x="215.758" y="109.84" width="2.01184" height="15.0888" rx="1.00592" fill="#222222"/>
<rect x="237.923" y="111.502" width="1.00592" height="25.1827" rx="0.502959" transform="rotate(59.3418 237.923 111.502)" fill="#222222"/>
<path d="M215.6 126.965C216.811 127.566 218.28 127.071 218.881 125.86C219.482 124.648 218.987 123.179 217.776 122.578C216.564 121.977 215.095 122.472 214.494 123.684C213.893 124.895 214.388 126.365 215.6 126.965Z" fill="#222222"/>
<path d="M215.554 124.599C215.446 125.247 215.924 125.829 216.466 125.93C217.214 126.068 217.988 125.272 217.851 124.536C217.764 124.063 217.309 123.66 216.774 123.631C216.199 123.601 215.653 124.009 215.554 124.599Z" fill="#E8E8E9"/>
<defs>
<clipPath id="clip0_92216_21509">
<rect width="68.7955" height="98.9038" fill="white" transform="translate(35.8379 53.3613)"/>
</clipPath>
</defs>
</svg>
