<svg width="24" height="24" viewBox="0 0 24 24" fill="none" xmlns="http://www.w3.org/2000/svg">
<path fill-rule="evenodd" clip-rule="evenodd" d="M14.0815 21.5383C16.5026 17.2965 15.8682 14.3572 14.5437 11.9005C15.7809 9.38989 16.2955 6.95358 14.7496 3.65446L14.7652 3.63867C17.7067 6.48814 19.3098 7.95187 19.1979 11.9008C19.1979 11.9008 19.4744 16.9782 14.0815 21.5383Z" fill="#DB3731"/>
<path fill-rule="evenodd" clip-rule="evenodd" d="M14.5439 11.9004C15.8684 14.3571 16.5028 17.2963 14.0817 21.5381C13.4958 22.0337 12.8425 22.5232 12.1149 22.9993C13.7857 19.5573 13.2275 17.818 11.9639 16.3579L12.0299 16.3345C12.9379 14.7248 13.8534 13.3009 14.5439 11.9004Z" fill="#F2C202"/>
<path fill-rule="evenodd" clip-rule="evenodd" d="M14.5387 11.901C12.4966 8.11967 8.81658 5.48222 12.1342 1C13.0996 2.02602 13.9776 2.88145 14.7605 3.63889L14.745 3.65471C16.2932 6.95389 15.7779 9.39029 14.5387 11.901Z" fill="#F2C202"/>
<path fill-rule="evenodd" clip-rule="evenodd" d="M9.17413 13.6451C10.1333 14.6679 11.1829 15.4624 11.9631 16.3633C13.2265 17.8224 13.7846 19.5607 12.1141 23.0005C12.1141 23.0005 4.80532 18.4848 4.80532 11.9088C4.80532 11.9088 4.55773 9.31035 6.66933 6.50781C6.52911 10.1139 7.75289 12.1301 9.17413 13.6451Z" fill="#DB3731"/>
<path fill-rule="evenodd" clip-rule="evenodd" d="M8.41638 4.64258C8.41638 4.64258 11.5655 8.34148 9.16153 13.6514C7.73574 12.1331 6.50803 10.1126 6.64871 6.49882C7.11421 5.88139 7.69425 5.25435 8.41638 4.64258Z" fill="#F2C202"/>
</svg>
