<?xml version="1.0" encoding="UTF-8"?>
<svg width="21px" height="15px" viewBox="0 0 21 15" version="1.1" xmlns="http://www.w3.org/2000/svg" xmlns:xlink="http://www.w3.org/1999/xlink">
    <!-- Generator: Sketch 64 (93537) - https://sketch.com -->
    <title>flag_placeholder</title>
    <desc>Created with Sketch.</desc>
    <g id="flag_placeholder" stroke="none" stroke-width="1" fill="none" fill-rule="evenodd">
        <rect id="Rectangle" fill="#D2D2D6" x="0" y="0" width="21" height="15"></rect>
        <path d="M9.54631579,8.20325203 C9.54631579,7.97096283 9.57999966,7.77351998 9.64736842,7.61091754 C9.71473718,7.4483151 9.82842025,7.29732938 9.98842105,7.15795587 C10.2242117,6.94889559 10.4410516,6.76693844 10.6389474,6.61207898 C10.8368431,6.45721951 11.0073677,6.31204094 11.1505263,6.17653891 C11.2936849,6.04103688 11.4052628,5.91327973 11.4852632,5.79326365 C11.5652636,5.67324756 11.6052632,5.54742613 11.6052632,5.41579559 C11.6052632,5.16027747 11.5189482,4.9608989 11.3463158,4.81765389 C11.1736833,4.67440889 10.9568434,4.60278746 10.6957895,4.60278746 C10.299998,4.60278746 9.9989484,4.7034446 9.79263158,4.9047619 C9.58631476,5.10607921 9.47052644,5.34997921 9.44526316,5.63646922 L7.5,5.5203252 C7.59263204,4.69957003 7.92104981,4.07433432 8.48526316,3.6445993 C9.04947651,3.21486429 9.77367979,3 10.6578947,3 C11.0452651,3 11.409472,3.04839286 11.7505263,3.14518002 C12.0915807,3.24196719 12.3926303,3.38714576 12.6536842,3.58072009 C12.9147381,3.77429443 13.1210519,4.014323 13.2726316,4.30081301 C13.4242113,4.58730302 13.5,4.91637445 13.5,5.28803717 C13.5,5.51258339 13.4747371,5.71583339 13.4242105,5.89779326 C13.373684,6.07975314 13.287369,6.25977456 13.1652632,6.43786295 C13.0431573,6.61595134 12.8831589,6.79597276 12.6852632,6.97793264 C12.4873674,7.15989251 12.2368436,7.35927108 11.9336842,7.57607433 C11.739999,7.71544785 11.609474,7.85094785 11.5421053,7.9825784 C11.4747365,8.11420894 11.4410526,8.24583751 11.4410526,8.37746806 L11.4410526,9.15279271 L9.54631579,9.15279271 L9.54631579,8.20325203 Z M9.5,11.047619 C9.5,10.9164935 9.52536207,10.7922711 9.57608696,10.6749482 C9.62681185,10.5576254 9.69746332,10.455832 9.78804348,10.3695652 C9.87862364,10.2832984 9.98550663,10.2160113 10.1086957,10.1677019 C10.2318847,10.1193924 10.3623182,10.0952381 10.5,10.0952381 C10.6376818,10.0952381 10.7681153,10.1193924 10.8913043,10.1677019 C11.0144934,10.2160113 11.1213764,10.2832984 11.2119565,10.3695652 C11.3025367,10.455832 11.3731882,10.5576254 11.423913,10.6749482 C11.4746379,10.7922711 11.5,10.9164935 11.5,11.047619 C11.5,11.1787446 11.4746379,11.302967 11.423913,11.4202899 C11.3731882,11.5376127 11.3025367,11.6394061 11.2119565,11.7256729 C11.1213764,11.8119397 11.0144934,11.8792268 10.8913043,11.9275362 C10.7681153,11.9758457 10.6376818,12 10.5,12 C10.3623182,12 10.2318847,11.9758457 10.1086957,11.9275362 C9.98550663,11.8792268 9.87862364,11.8119397 9.78804348,11.7256729 C9.69746332,11.6394061 9.62681185,11.5376127 9.57608696,11.4202899 C9.52536207,11.302967 9.5,11.1787446 9.5,11.047619 Z" id="?" fill="#FFFFFF"></path>
    </g>
</svg>